<?xml version="1.0" standalone="no"?>
<!DOCTYPE svg PUBLIC "-//W3C//DTD SVG 20010904//EN"
 "http://www.w3.org/TR/2001/REC-SVG-20010904/DTD/svg10.dtd">
<svg version="1.0" xmlns="http://www.w3.org/2000/svg"
 width="520.000000pt" height="520.000000pt" viewBox="0 0 520.000000 520.000000"
 preserveAspectRatio="xMidYMid meet">
<metadata>
Created by potrace 1.11, written by Peter Selinger 2001-2013
</metadata>
<g transform="translate(0.000000,520.000000) scale(0.100000,-0.100000)"
fill="#000000" stroke="none">
<path d="M306 5189 c-62 -15 -153 -68 -197 -116 -22 -24 -55 -74 -72 -111
l-32 -67 0 -2285 c0 -2173 1 -2288 18 -2336 39 -113 123 -201 234 -246 l58
-23 2235 -3 c1516 -2 2257 1 2303 8 176 27 310 161 337 337 7 46 10 786 8
2303 l-3 2235 -22 54 c-46 112 -122 189 -230 233 l-58 23 -2270 2 c-1347 0
-2286 -3 -2309 -8z m1619 -679 c176 -26 309 -136 405 -335 21 -44 260 -685
530 -1425 271 -740 510 -1381 532 -1424 71 -144 117 -196 204 -232 40 -17 150
-23 190 -10 20 6 23 2 32 -51 7 -37 7 -62 1 -68 -6 -6 -62 -10 -127 -10 -106
0 -122 3 -174 27 -69 32 -149 104 -194 174 -51 79 -82 162 -444 1164 -186 514
-342 946 -347 960 -10 23 -10 23 -20 5 -5 -11 -221 -539 -479 -1172 l-469
-1153 -67 0 c-38 0 -68 3 -68 6 0 3 76 191 169 417 93 227 325 791 515 1254
l346 843 -114 302 c-62 167 -125 329 -141 361 -45 95 -114 170 -192 209 -64
31 -74 33 -169 32 l-102 -1 -11 55 c-6 31 -9 57 -7 59 4 5 85 21 111 22 11 0
51 -4 90 -9z"/>
</g>
</svg>
