<?xml version="1.0" standalone="no"?>
<!DOCTYPE svg PUBLIC "-//W3C//DTD SVG 20010904//EN"
 "http://www.w3.org/TR/2001/REC-SVG-20010904/DTD/svg10.dtd">
<svg version="1.0" xmlns="http://www.w3.org/2000/svg"
 width="700.000000pt" height="700.000000pt" viewBox="0 0 700.000000 700.000000"
 preserveAspectRatio="xMidYMid meet">
<metadata>
Created by potrace 1.11, written by Peter Selinger 2001-2013
</metadata>
<g transform="translate(0.000000,700.000000) scale(0.100000,-0.100000)"
fill="#000000" stroke="none">
<path d="M450 6993 c-59 -10 -153 -47 -207 -82 -96 -62 -170 -156 -215 -277
l-23 -59 -3 -3038 c-2 -2596 0 -3047 12 -3106 44 -211 206 -373 418 -417 58
-12 504 -14 3096 -12 l3027 3 66 22 c164 56 296 188 352 353 l22 65 3 3027 c3
3336 7 3100 -60 3235 -44 90 -142 188 -230 231 -135 66 98 62 -3218 60 -1658
0 -3026 -3 -3040 -5z m3115 -1790 c108 -291 494 -1322 858 -2293 363 -971 662
-1775 665 -1788 l4 -22 -297 2 -297 3 -466 1248 c-256 686 -468 1247 -471
1247 -3 0 -215 -562 -471 -1248 l-465 -1247 -298 -3 c-166 -1 -297 2 -297 6 0
5 279 746 620 1646 l619 1638 -236 631 c-129 348 -241 649 -249 670 l-13 37
298 0 299 0 197 -527z"/>
</g>
</svg>
